<svg xmlns="http://www.w3.org/2000/svg" width="1200" height="630" viewBox="0 0 1200 630" role="img" aria-label="My Message for Sofiii preview card">
  <defs>
    <linearGradient id="bg" x1="0" y1="0" x2="1" y2="1">
      <stop offset="0%" stop-color="#fff5df"/>
      <stop offset="50%" stop-color="#ffe8f4"/>
      <stop offset="100%" stop-color="#f0f6ff"/>
    </linearGradient>
    <radialGradient id="glowA" cx="0.2" cy="0.2" r="0.5">
      <stop offset="0%" stop-color="#ffd4e9" stop-opacity="0.9"/>
      <stop offset="100%" stop-color="#ffd4e9" stop-opacity="0"/>
    </radialGradient>
    <radialGradient id="glowB" cx="0.8" cy="0.85" r="0.45">
      <stop offset="0%" stop-color="#bfefff" stop-opacity="0.75"/>
      <stop offset="100%" stop-color="#bfefff" stop-opacity="0"/>
    </radialGradient>
  </defs>

  <rect width="1200" height="630" fill="url(#bg)"/>
  <rect width="1200" height="630" fill="url(#glowA)"/>
  <rect width="1200" height="630" fill="url(#glowB)"/>

  <g transform="translate(110 85)">
    <rect x="0" y="0" width="980" height="460" rx="34" fill="#fff9ef" stroke="#ffd2e6" stroke-width="4"/>

    <text x="70" y="120" font-family="Fredoka, 'Trebuchet MS', sans-serif" font-size="62" font-weight="700" fill="#8a2e63">
      My Message for Sofiii
    </text>

    <text x="70" y="195" font-family="Nunito, 'Segoe UI', sans-serif" font-size="36" font-weight="700" fill="#31508f">
      A heartfelt interactive message made with love.
    </text>

    <text x="70" y="255" font-family="Nunito, 'Segoe UI', sans-serif" font-size="31" fill="#5c3d78">
      Music, memories, and a confession from Chris.
    </text>

    <text x="70" y="382" font-family="Nunito, 'Segoe UI', sans-serif" font-size="29" font-weight="800" fill="#a73770">
      Tap to open the story.
    </text>

    <g transform="translate(835 102)">
      <circle cx="54" cy="54" r="54" fill="#ffc9e3"/>
      <path d="M54 93c-2 0-4-1-5-3-3-3-22-17-33-29-10-11-10-28 1-39 12-11 30-9 40 4 10-13 28-15 40-4 11 11 11 28 1 39-11 12-30 26-33 29-1 2-3 3-5 3z" fill="#e64e95"/>
    </g>
  </g>
</svg>
